<svg xmlns="http://www.w3.org/2000/svg" viewBox="0 0 92.41 92.4"><defs><style>.cls-1{fill:#ffcb0d;}</style></defs><title>clear-day-yellow</title><g id="Layer_2" data-name="Layer 2"><g id="Layer_1-2" data-name="Layer 1"><g id="Layer_2-2" data-name="Layer 2"><g id="Objects"><path class="cls-1" d="M88.21,42H75.57a29.48,29.48,0,0,0-1.82-6.85l10.94-6.31a4.2,4.2,0,0,0-4.2-7.28l-11,6.32a29.69,29.69,0,0,0-5-5l6.32-10.95a4.2,4.2,0,0,0-7.28-4.2L57.25,18.66a29.3,29.3,0,0,0-6.84-1.82V4.2a4.2,4.2,0,1,0-8.4,0h0V16.85a29.36,29.36,0,0,0-6.85,1.82L28.84,7.73a4.2,4.2,0,0,0-7.28,4.2l6.32,11a30.17,30.17,0,0,0-5,5l-11-6.32a4.2,4.2,0,0,0-4.2,7.28l10.94,6.32A29,29,0,0,0,16.86,42H4.2a4.2,4.2,0,1,0,0,8.4H16.86a29.28,29.28,0,0,0,1.82,6.84l-11,6.33a4.2,4.2,0,0,0,2.11,7.84,4.14,4.14,0,0,0,2.09-.56l11-6.32a30.18,30.18,0,0,0,5,5l-6.32,11a4.2,4.2,0,0,0,7.28,4.2l6.32-10.95A29.3,29.3,0,0,0,42,75.55V88.2a4.2,4.2,0,0,0,8.4,0V75.55a29.4,29.4,0,0,0,6.85-1.82l6.32,10.94a4.2,4.2,0,1,0,7.4-4l-.13-.22L64.52,69.53a30,30,0,0,0,5-5l11,6.32a4.15,4.15,0,0,0,2.09.56,4.2,4.2,0,0,0,2.11-7.84l-11-6.32a29.31,29.31,0,0,0,1.82-6.85H88.21a4.2,4.2,0,0,0,0-8.4Z"/></g></g></g></g></svg>