<svg xmlns="http://www.w3.org/2000/svg" viewBox="0 0 100.66 72.8"><defs><style>.cls-1{fill:#ffcb0d;}</style></defs><title>cloudy-yellow</title><g id="Layer_2" data-name="Layer 2"><g id="Layer_1-2" data-name="Layer 1"><g id="Layer_2-2" data-name="Layer 2"><g id="Objects"><path class="cls-1" d="M95.38,20.68A9.89,9.89,0,0,0,94,20a11.64,11.64,0,0,0,1.11-1.6A12.35,12.35,0,0,0,74,5.62a11.71,11.71,0,0,0-12.22,1A28.26,28.26,0,0,1,73.13,28,24.73,24.73,0,0,1,92.31,40.07a10.5,10.5,0,0,0,3.06-19.39Z"/><path class="cls-1" d="M71,32.69a18.2,18.2,0,0,0-2.9.23,22.75,22.75,0,0,0,.32-3.7,23.51,23.51,0,0,0-47-1A22.3,22.3,0,0,0,22.55,72.8h48.4a20.06,20.06,0,0,0,0-40.11Z"/></g></g></g></g></svg>