<svg xmlns="http://www.w3.org/2000/svg" viewBox="0 0 96.19 94.8"><defs><style>.cls-1{fill:#ffcb0d;}</style></defs><title>freezing-rain-yellow</title><g id="Layer_2" data-name="Layer 2"><g id="Layer_1-2" data-name="Layer 1"><g id="Layer_2-2" data-name="Layer 2"><g id="Objects"><path class="cls-1" d="M74.89,28.63a19.26,19.26,0,0,0-3.07.24A23.88,23.88,0,0,0,72.16,25,24.89,24.89,0,0,0,22.4,23.89,23.61,23.61,0,0,0,17,70.13l5.18-9A9.4,9.4,0,0,1,27,57a9.41,9.41,0,0,1,1.12-6.28L30.85,46a9.43,9.43,0,0,1,17.62,5.4L51.58,46a9.46,9.46,0,0,1,17.61,5.68,8.68,8.68,0,0,1,.41-1L72.31,46a9.47,9.47,0,0,1,16.41,9.47L86,60.22a9.49,9.49,0,0,1-7.2,4.68,9.52,9.52,0,0,1,.57,5.71,21.23,21.23,0,0,0-4.49-42Z"/><path class="cls-1" d="M34.66,58.42a3.38,3.38,0,0,0,4.62-1.24h0L42,52.49a3.38,3.38,0,1,0-5.86-3.39h0l-2.71,4.69a3.38,3.38,0,0,0,1.22,4.62Z"/><path class="cls-1" d="M32,63a3.39,3.39,0,0,0-4.62,1.24l-6,10.41A3.41,3.41,0,1,0,27.26,78l6-10.41A3.39,3.39,0,0,0,32,63Z"/><path class="cls-1" d="M20,83.78A3.39,3.39,0,0,0,15.39,85l-2.71,4.69a3.38,3.38,0,0,0,5.86,3.38l2.71-4.69A3.39,3.39,0,0,0,20,83.79Z"/><path class="cls-1" d="M61.48,47.87a3.39,3.39,0,0,0-4.62,1.24l-8.8,15.23A3.38,3.38,0,0,0,49.29,69h0a3.32,3.32,0,0,0,1.69.45,3.38,3.38,0,0,0,2.93-1.69l8.8-15.24A3.39,3.39,0,0,0,61.48,47.87Z"/><path class="cls-1" d="M46.83,73.24a3.38,3.38,0,0,0-4.62,1.24h0l-8.8,15.24a3.38,3.38,0,0,0,1.24,4.62h0a3.31,3.31,0,0,0,1.69.45,3.38,3.38,0,0,0,2.93-1.69l8.8-15.24A3.39,3.39,0,0,0,46.83,73.24Z"/><path class="cls-1" d="M80.74,57.18l2.71-4.69a3.38,3.38,0,1,0-5.86-3.39h0l-2.71,4.69a3.38,3.38,0,1,0,5.86,3.38Z"/><path class="cls-1" d="M71.87,65.77A3.39,3.39,0,0,0,67.25,67l-2.77,4.8a3.38,3.38,0,0,0,5.86,3.38l2.77-4.8a3.39,3.39,0,0,0-1.22-4.64Z"/><path class="cls-1" d="M61.47,83.78A3.39,3.39,0,0,0,56.85,85l-2.71,4.69A3.38,3.38,0,1,0,60,93.1l2.71-4.69A3.39,3.39,0,0,0,61.47,83.78Z"/></g></g></g></g></svg>