<svg xmlns="http://www.w3.org/2000/svg" viewBox="0 0 557.05 105.63"><defs><style>.cls-1{fill:none;stroke:#fff;stroke-miterlimit:10;stroke-width:3px;}</style></defs><title>skyline</title><g id="Layer_2" data-name="Layer 2"><g id="Layer_2-2" data-name="Layer 2"><path class="cls-1" d="M0,104.13H33.33V76.62H101V33.77h12.7V25.31h19v7.41H146V50.17l4.23,2.65v2.65h5.29V76.62h6.88v-54l16.4-3.17,34.39,3.7v27l11.64-1.06,16.4,1.59V34.83l9.52-1.06h2.65V31.65h4.76l14.28,1.06v2.65l8.46.53V51.23L301,49.64l18.52,2.12V67.1h97.87V93.55h10.69L428,9.44h2.65V4.73l3.7-.05V1.5h37.56V5.2h2.65V76.62h46v20.1h36.5"/></g></g></svg>