<svg xmlns="http://www.w3.org/2000/svg" viewBox="0 0 99.53 100.41"><defs><style>.cls-1{fill:#ffcb0d;}</style></defs><title>snow-day-yellow</title><g id="Layer_2" data-name="Layer 2"><g id="Layer_1-2" data-name="Layer 1"><g id="Layer_2-2" data-name="Layer 2"><g id="Objects"><path class="cls-1" d="M97.11,24.22H89.82a17,17,0,0,0-1-4l6.3-3.64a2.42,2.42,0,0,0-2.42-4.2l-6.31,3.64a17.16,17.16,0,0,0-2.89-2.89l3.64-6.31A2.42,2.42,0,1,0,83,4.35l-.06.1-3.74,6.31a16.87,16.87,0,0,0-3.95-1V2.42a2.42,2.42,0,1,0-4.84,0h0V9.71a16.94,16.94,0,0,0-3.95,1.05l-3.6-6.3a2.42,2.42,0,1,0-4.2,2.42l3.65,6.31a10.08,10.08,0,0,0-1.08,1A27.41,27.41,0,0,1,71,34a24,24,0,0,1,13.19,5.4,17.17,17.17,0,0,0,2.11-2.2l6.32,3.65a2.38,2.38,0,0,0,1.21.33,2.42,2.42,0,0,0,1.21-4.52L88.77,33a16.78,16.78,0,0,0,1-4h7.34a2.42,2.42,0,1,0,0-4.84h0Z"/><rect class="cls-1" x="29.02" y="92.77" width="7.64" height="7.64" rx="2.55" ry="2.55"/><rect class="cls-1" x="22.66" y="80.03" width="10.19" height="7.64" rx="2.55" ry="2.55"/><rect class="cls-1" x="46.85" y="92.77" width="10.19" height="7.64" rx="2.55" ry="2.55"/><rect class="cls-1" x="40.48" y="80.03" width="7.64" height="7.64" rx="2.55" ry="2.55"/><path class="cls-1" d="M68.91,38.51a17.69,17.69,0,0,0-2.82.22,22,22,0,0,0,.31-3.59,22.83,22.83,0,0,0-45.64-1,21.66,21.66,0,0,0,1.13,43.3h47a19.5,19.5,0,0,0,0-39ZM41.76,72.39a2.56,2.56,0,0,1-2.55,2.55H36.66a2.56,2.56,0,0,1-2.55-2.55V69.85a2.56,2.56,0,0,1,2.55-2.55h2.55a2.56,2.56,0,0,1,2.55,2.55Zm17.83,0A2.55,2.55,0,0,1,57,74.94H54.49a2.55,2.55,0,0,1-2.55-2.55h0V69.85a2.56,2.56,0,0,1,2.55-2.55H57a2.56,2.56,0,0,1,2.55,2.55Z"/><rect class="cls-1" x="58.31" y="80.03" width="7.64" height="7.64" rx="2.55" ry="2.55"/></g></g></g></g></svg>