<svg xmlns="http://www.w3.org/2000/svg" viewBox="0 0 92.41 92.4"><defs><style>.cls-1{fill:#ffcb0d;}</style></defs><title>sunrays</title><g id="Layer_2" data-name="Layer 2"><g id="Layer_1-2" data-name="Layer 1"><path class="cls-1" d="M7.68,28.84l10.94,6.32-.07.2a29.7,29.7,0,0,1,4.28-7.51L11.88,21.56a4.2,4.2,0,0,0-4.2,7.28Z"/><path class="cls-1" d="M18.67,57.25,7.73,63.57a4.2,4.2,0,0,0,2.11,7.84,4.14,4.14,0,0,0,2.09-.56l11-6.3A29.71,29.71,0,0,1,18.67,57.25Z"/><path class="cls-1" d="M16.52,46.15A30,30,0,0,1,16.82,42H4.2a4.2,4.2,0,1,0,0,8.4H16.83A30,30,0,0,1,16.52,46.15Z"/><path class="cls-1" d="M46.28,16.4a30,30,0,0,1,4.13.29V4.2a4.2,4.2,0,0,0-8.4,0h0V16.7A30,30,0,0,1,46.28,16.4Z"/><path class="cls-1" d="M73.89,35.07l10.8-6.23a4.2,4.2,0,1,0-4.2-7.28l-10.8,6.23A29.71,29.71,0,0,1,73.89,35.07Z"/><path class="cls-1" d="M64.62,22.73l6.23-10.8a4.2,4.2,0,0,0-7.28-4.2L57.33,18.52A29.71,29.71,0,0,1,64.62,22.73Z"/><path class="cls-1" d="M27.84,22.81a29.71,29.71,0,0,1,7.27-4.23L28.84,7.73a4.2,4.2,0,0,0-7.28,4.2Z"/><path class="cls-1" d="M70.84,80.47,64.57,69.61a29.71,29.71,0,0,1-7.28,4.18l6.29,10.88a4.2,4.2,0,0,0,7.4-4Z"/><path class="cls-1" d="M27.92,69.55l-6.31,11a4.2,4.2,0,0,0,7.28,4.2l6.32-11,.4.14A29.7,29.7,0,0,1,27.92,69.55Z"/><path class="cls-1" d="M88.21,42H75.74a29.48,29.48,0,0,1,0,8.4H88.21a4.2,4.2,0,1,0,0-8.4Z"/><path class="cls-1" d="M84.72,63.57,73.86,57.32a29.71,29.71,0,0,1-4.24,7.27l10.9,6.26a4.15,4.15,0,0,0,2.09.56,4.2,4.2,0,0,0,2.11-7.84Z"/><path class="cls-1" d="M36.78,74.35l.13,0Z"/><path class="cls-1" d="M46.28,75.9A30,30,0,0,1,42,75.59V88.2a4.2,4.2,0,1,0,8.4,0V75.61A30,30,0,0,1,46.28,75.9Z"/></g></g></svg>