<svg xmlns="http://www.w3.org/2000/svg" viewBox="0 0 97.27 100.41"><defs><style>.cls-1{fill:#ffcb0d;}</style></defs><title>thunderstorms-night-yellow</title><g id="Layer_2" data-name="Layer 2"><g id="Layer_1-2" data-name="Layer 1"><g id="Layer_2-2" data-name="Layer 2"><g id="Objects"><path class="cls-1" d="M96.76,15.89l-1.12-.16a2.22,2.22,0,0,1-1.44-1.07l-.51-1c-.25-.51-.66-.51-.91,0l-.5,1a2.23,2.23,0,0,1-1.48,1.08l-1.13.16c-.56.08-.69.47-.28.88l.82.79a2.21,2.21,0,0,1,.57,1.74l-.19,1.12c-.1.56.24.8.74.54l1-.53a2.2,2.2,0,0,1,1.83,0l1,.53c.5.26.84,0,.74-.54l-.19-1.12a2.21,2.21,0,0,1,.49-1.75l.81-.79C97.45,16.36,97.32,16,96.76,15.89Z"/><path class="cls-1" d="M92.25,26A15.36,15.36,0,0,1,78.93,2.89,1.92,1.92,0,0,0,78.9,1a2,2,0,0,0-1.7-1A19.12,19.12,0,0,0,60.93,9,29,29,0,0,1,73.81,31.34a25.32,25.32,0,0,1,12.39,4.9c.22-.12.46-.21.68-.34a19.3,19.3,0,0,0,7-7.07A1.93,1.93,0,0,0,92.21,26Z"/><path class="cls-1" d="M71,36.64a18.11,18.11,0,0,0-2.91.23,22.61,22.61,0,0,0,.32-3.7,23.52,23.52,0,0,0-47-1,22.32,22.32,0,0,0,1.16,44.62h3.52a8,8,0,0,1,.4-3.49l7-20.28a9.92,9.92,0,0,1,9.13-6.49H52.1a7,7,0,0,1,6.26,10.75L54,65h4.1A6.61,6.61,0,0,1,63.2,76.27l-.45.52H71a20.07,20.07,0,1,0,0-40.15Z"/><path class="cls-1" d="M58.08,70.43H47.61c-1.65,0-2.33-1.17-1.52-2.61l7.52-13.25c.81-1.43.13-2.6-1.51-2.6H42.62a4.51,4.51,0,0,0-4,2.82l-7,20.28a2,2,0,0,0,2,2.83H41.1a1.81,1.81,0,0,1,1.79,2.74l-8,18.48c-.66,1.5-.31,1.72.77.49l23.5-26.92C60.2,71.44,59.73,70.43,58.08,70.43Z"/></g></g></g></g></svg>