<svg xmlns="http://www.w3.org/2000/svg" viewBox="0 0 87.99 86.21"><defs><style>.cls-1{fill:#ffcb0d;}</style></defs><title>clearn-night-yellow</title><g id="Layer_2" data-name="Layer 2"><g id="Layer_1-2" data-name="Layer 1"><g id="Layer_2-2" data-name="Layer 2"><g id="Objects"><path class="cls-1" d="M76.74,58.14A34.42,34.42,0,0,1,46.9,6.46a4.32,4.32,0,0,0-.07-4.31A4.42,4.42,0,0,0,43,0a43.11,43.11,0,0,0,.16,86.21h0A43,43,0,0,0,80.47,64.6a4.31,4.31,0,0,0-3.73-6.46Z"/><path class="cls-1" d="M86.84,35.61l-2.52-.37A5,5,0,0,1,81,32.83L79.9,30.55c-.56-1.14-1.49-1.14-2,0l-1.13,2.28a5,5,0,0,1-3.32,2.41l-2.52.37c-1.26.18-1.54,1.06-.63,2L72,39.33a5,5,0,0,1,1.27,3.9l-.43,2.51c-.21,1.25.53,1.79,1.66,1.2l2.25-1.18a4.94,4.94,0,0,1,4.1,0l2.25,1.18c1.13.59,1.87,0,1.66-1.2l-.43-2.51a5,5,0,0,1,1.27-3.9l1.82-1.77C88.38,36.67,88.1,35.79,86.84,35.61Z"/></g></g></g></g></svg>