<svg xmlns="http://www.w3.org/2000/svg" viewBox="0 0 147.62 64.21"><defs><style>.cls-1{fill:#dfedf2;}.cls-2{fill:#f2c50a;}</style></defs><title>virginia</title><g id="Layer_2" data-name="Layer 2"><g id="Virginia"><path class="cls-1" d="M139.74,44.42l-.52,1.14,0,.11v.17h.12l.42-.71.2-.45.1-.51h-.13Zm5.41-12.53-4.28.57-.12.11-.28.65.17.08-.22.23-.28.1-.57.12-.43.26-.41.34v.13l.44-.07.49.12.32.25.05.32-.11.17v.2l.09.21.15.19-.18,0-.41-.07-.13,0-.1.23v.25l.08.24.16.18-1,.14-.19-.1-.2-.17-.2,0-.2.29.35.35v.3l-.23.28-.37.29v.17h.38l0,.13-.61.68,0,.2.11.34H137l-.34.07-.26.18-.19.35.26.33-.2.13-.38.08-.3.21.22.16,0,.19-.17.2-.24.21.72.3-.41.23-.36.34-.25.47-.06.63.37-.18.16.14,0,.23-.48.25-.21.31-.12.39-.05.37h.13l0-.14.07,0,.1,0,0,0v.21l-.11.28-.2.26-.28.15.09.28-.1.41-.35.81.16-.07.1,0,.23.09-.31.28-.26.48,0,.52.37.39v.13l-.08.3.44.68.13.45.1.49.23.15.27-.11.22-.31,0-.2.08-.78.08-.22.17-.22.16-.11.08.1-.07.93.12.26.42-.2-.09-.24-.07-.49-.08-.18.17-.39.11-.52.15-2,.06-.25.09-.24.37-.52.15-.27,0-.16,0-.19,0-.36.07-.26.34-.47.07-.17.22-.15,1.35-.23-.14-.24-.22-.09L139,43l-.24-.08.17-.31.28-.34.27-.14.12.27.07.38.16.25.19.21.16.27.35-.35.36-.45.31-.51.19-.5-.27-.17.08-.58.25-.67.33-.65.21-.79L143.39,36l.66-.73.13-.35L144,34.5l.32-.12,0-.11-.07-.16-.06-.26v-.55l0-.34.09-.25.25-.21.28-.11.22-.2ZM135,58.57l-.35-1.81-.33-.56-.41,0-.48.15h-.56l-.7-.28-.89-.08-1.66-.64H129l-.35.41,0,.34.19.12.09.13-.25.37,0,.24.14.28.32.45-.29-.06-.29-.18-.18-.25,0-.25L128,56.7l-.47-.14-.49,0-.46.09-.37.22-.34.27-.38.22-.47,0v-.17l.5-.36.25-.24.1-.21-.1-.29-.17-.25,0-.22.3-.2v-.15l-1.08-.59-.24-.22-.12-.08-.15-.05-.23,0-.11-.08,0-.13.05,0,.17-.12v-.13l-1.05-.29-.27-.17-.12-.3V51.68l-.24-1.28-.12-.23-.24.09-.49.61-.35,0-.32-.23-.57-.67-.25-.14h-1.61l-.35-.14-.65-.49-.39-.1-.15-.2-.08-.43-.16-.42-.39-.16-.14.07-.53.46-.21.1-.15-.15-.12-.22-.11-.11h-1.5l-1.13-.44-.19.05-.08-.07-.17,0-.17-.11-.06-.28.48-.45.27.35.26.12h.74l.1,0,.31.2.18,0h.17l.6-.23h.16l.15.07.17.18,0,.13.13.29.13.22.06-.1.11-.14.55-.45.19-.1.23.06.15.17.51.85.16.39.22.23.41,0,.33-.25.19-.22.09-.21v-.59l.07-.22.16-.17.07.4,0,.5,0,.43.22.17.24.07.65.3.3.07.14.08.08.19.06.22L121,50l.17.12.09-.13.06-.22.1-.15.33-.09.73-.07.25-.14.36.28.29.48.11.58-.16.62.12.15.21.3.36.4.39.29.31,0,1.55,1.37.22.31.19.86.24.08.28-.13.49-.44.25-.14.3-.05h.43l.34-.13.23-.31.15-.43.08-.47v-.62l-.2-.14-.71.17-.29-.12.23-.27.39-.26.2-.09-.11-.31-.34-.33-.51-.35-.08.25-.19-.05-.2-.21-.11-.21v-.2l0-.28,0-.23,0-.05-.21-.27-.3,0-.74.13-.36-.08-.42-.2-.71-.47-1.15-1-1-1.23-.38-.69-.25-.36-.55-.36-.74-1.31-.16-.09-.19-.07-.17-.09-.07-.13V43.1l0-.22.09-.15.16-.06.9.9.52,1,.33.48.4.21.27.2L124,47.16l.14.11.22,0,.17.07.17.31.51.19.66.53.34.11,1.39-.31.08-.13-.09-.29-.16-.3-.14-.18-.15,0-.57,0v-.13l.5-.19.09,0,0-.22-.09-.08-.13,0-.47-.36-.08-.17.09-.24.17-.13.19,0,.19.06.17.09-.05-.18-.09-.19-.13-.16-.2-.07.23-.54.33.29.53,1,.32.1.25-.11.21,0,0,.34.71.91.15.29h.11l0-.66.4-1.19,0-.68-.14-.39-.2-.08h-.21l-.18-.14v-.23l.16-.23.24-.19.2-.1v-.14l-.5-.5-.24,0-.1.47-.17.23-.37-.17L128,43l-.37-.08-.27-.18v-.2l.47-.15.82-.08.31-.11.31-.26-.72-.24-.74-.08-.64-.22-.42-.66-.26.12h-.36L125,40.61l-.28-.16-.22-.26-.26-.49-.15-.4,0-.17,0-.05-.1-.63-.12-.16-.48-.49-.19-.1-.78-.15v-.08l0-.29v-.08l-.08,0h-.15l-.19-.15-.41-.14-.07-.1-.16-.29-.09-.06-.15-.17-.42-.75-.09-.22,0-.43-.13-.2-.55-.21-.22-.14-.28-.23-.23-.3L119,33.2l-.17-.11-.2-.1-.17-.13-.17-.22,0-.13-.16-1.25-.07-.14-.33-.35-.07-.12-.21-.22-1.24-.32L116,30l-.11-.17-.06-.22v-.29l-.06-.17h-.14l-.22.11-.59-.09-.31-.14-.12-.23.14-.22.33,0,.78.2.26.14.2.32.17.36.16.26.18,0,.78.16.27.17.21.22.34.53.49,1.21.15.15.69.54.24.7,1.07.57.24.7.66,1.06.21.22.23.12.24,0,.22-.23,0,.33.09.21.14.13.16.09.21-.2.11.1.07.22.09.17.52.41.08.14.14.44.62.79.2.36v.25l.12.41.21.26.27,0,.2-.81.17-.3.22.36,0,.2.13.28.14.17.06,0,.09-.11.19.15.18.22.07.11,1,.37.49.09.29-.3h-.23l-.06-.15-.25-.33-.06-.22.08-.15.15-.08.1-.13-.09-.3.16.07.21,0h.2l.14-.1,0-.26-.55-.47-.14-.26,0-.09h.11l.12,0,.08,0,.12-.3.07-.22v-.2l-.07-.34-.35-.72-.12-.44.17-.2.28.15.55.58.31,0L130,36l.07-.52v-.95l-.12-.25-.3-.23-.36-.2-1.61-.61-.65-.46-.85-.32L126,32.4l.13,0,.13-.08.1,0-.15-.16-.17-.14-.19-.11-.21-.06-.62.13-.09-.06,0-.3,0-.08.22-.23.05-.3-.24-.29-.59-.41-.41-.39-.07-.11v-.47l0-.16-.15-.06-.21,0-.36.12h-.21l-.13-.07-.12-.11-.14-.1-.2,0-.17.14-.42.25-.42.11-.2-.26-.1-.28-.27-.16-.35-.07-.36,0-.7-.13-.86-.32-.68-.39-.24-.55,0-.13.06-.13v-.17l-.13-.18-.16-.11-.17-.08-.14-.1-.79-.84-.08,0-.16-.14-.1-.14.1-.06.32,0,.16,0,.12-.07.16-.33v-.38l-.1-.35-.13-.24-.41-.24-.41.19-.47.33-.85.27-.58.42-.32.1-1.14.15-.73-.23-.83-.08v-.15l.19,0,.59,0,.19-.08,0-.18-.2-.26-.13-.24-.62-.63-.2-.28.28-.15.22.14.34.46-.16-.83.2-1,.26-.83,0-.42v-.17l.14-.06.33-.23-.09-.11-.07-.14-.09-.07.23-.23.2-.34.14-.38.05-.35.11-.33.25-.18h.24l.11.21,0,.38.09.17h.18l.29-.15.22-.16.17-.22v-.22l-.28-.17-.12-.23V17l.18-.21.3-.06,0,.29.09.16h.13l.12-.43.14,0H115l.17-.08.35-.25.29-.09.19-.2.07-.55v-2.3l0-.11-.09-.26-.06-.13-.32-.5h0l-.16-.21-.67-.56-.09-.12-.2-.27-.2-.16-.54-.11-.59-.21-.25,0-.24-.12-.12-.3-.07-.36-.11-.31-.38-.41-.51-.28-.56-.16-1.55-.15-.41-.23-.63-.64L108,7.36l-.23-.3-.1-.35.13-.38.57-.52.26-.34.06-.46-.19-.35-.35-.16-.39-.11-.33-.23-.34-.57-.19-.18-.79-.19-.74-.3-.32-.06h-.89l-.34-.16c-.58,1.4-1.19,2.8-1.77,4.21l-.15-.13q-4-3.31-8.1-6.57L93.57,0l-.24.13-.25.39L93,.75l0,.18v.23l.1.68v.23l0,.26,0,.13-.08.23-.25.43-.54.77-.06.1,0,.11,0,.11v.2l0,.1,0,.24v.13L92,5l-.11.36,0,.14,0,.14v.12l0,.12L92,6.2v.21l0,.09-.08.12-.57.7-.7.55-.69.83-.29.48,0,.09v.08l0,.09v.17l-.1.18-.45.58-.11.1-.15.09-.29.1-.18,0-.15.06-.09.09-.11.18-.18.4-.12.19-.1.1-.13.1L87,12l-.14,0h-.11l-.09,0L86.6,12l-.06-.07,0-.09-.05-.08-.06-.05h-.09l-.09.06-2.08,3.06-.1.11-.1.07-.12,0-1.88-1.32h-.1l-.09.08-.74,1-.12.21-.08.18,0,.12-.05.13-.07.15-.31.43-.08.18,0,.14L80,17.48l0,.09-.08.1-.13.11-.26.16-.19.14-.17.18-.16.25-.08.16-.05.14-.16.74,0,.06v0l0,.15-.25.77-.1.22-.11.2L76.8,22.87l-.08.08-.09.06h-.13l-3.62-1.2-.05,0,0,0,0-.08.07-.17v-.19l0-.1L72.18,20l-.05-.08-.06-.05,0,0-1.46-.54h-.11l-.11.09-.1.17-.11.38,0,.22v.42l0,.13-.08.16-.32.46,0,.06,0,.32,0,.93,0,.12-.08.14-.29.38-.1.2-.18.66-.07.12-.18.11-.35.13-.07.08-.06.12-.07.2-.1.19-.17.23-.09.15,0,.21,0,.14.08.22,0,.1v.11l0,.14-.08.14-.3.31-.39.26-.17.15-.38.48-.82.76-.06.1,0,.12v.17l0,.23,0,.14-.39,1.25-1,1.93-3.62,4.12,0,.07-.15.51-.06.15-1.13,2.12-.08.23v.13l0,0,.22.21.19.13.5.26.08.08.05.12,0,.2,0,.13-.06.11-.16.14-.37.23-.29.14-.11.07-.13.1-.18.19-.08.15,0,.14v.1l0,.1,0,.09.07.07.2.14.07.1V43l-.06.13-.08.09-2.13,1.21-.53.47-.11.07-.09,0h-.09L56,45l-.07,0-.07-.07,0-.09,0-.1v-.38l0-.09-.06-.08-.17,0h-.13l-.41,0-.41.14L53,45,51.4,46l-.08,0-.14,0h-.06l-.05,0L51,45.94l0-.08,0-.08-.07-.06-.09,0-.3-.06-.08-.05,0-.08v-.17l0-.06-.06,0-.06,0-.49-.11h-.15l-.17,0-.24.09-.13.09-.1.1-.06.1-.08.24V46l0,.1.26.47v.13l0,.15-.11.23-.1.13-.09.09-1.15.68-.12,0-.1,0-.24-.21-.14,0-.17,0-.48.24-.15,0-1.81.23L43,49l-.2.05,0,0,0,0,0-.06-.06-.16,0-.08-.07-.07-.14-.12-.92-.58-.08-.07-.1-.11-.34-.5-.07-.08-.11-.07-.15,0-.22,0-.15.09-.09.09,0,.09-.12.36-.07.16-.11.17-.21.24-.14.11-.13.07-.7.08-.26.08-.15.07-.11.08-.91,1-.14.09-.12.05-.41,0-1.06-.1-.21-.06-.43-.32-.62-.32L34.06,49l-.15-.15-.23-.36-.06-.08-.08-.08-.09-.07-.1-.05-.15-.05-.38,0h-.24l-.22,0h-.07l-.2-.12-.15-.16-.06-.08,0-.09-.16-.41,0-.09-.06-.08L31.37,47l-.84-.59-.07-.08-.06-.09,0-.1v-.25l.06-.53V45l0-.1,0-.09-.06-.08-.06-.07-.63-.4-.07-.07,0-.09V44l0-.1.06-.08.42-.33,0-.06,0-.09,0-.11V43l0-.11,0-.1-.05-.08-.15-.16L23,48.3l-.42.29-4.49,2.22-.86.59-.32.32-.15.21v.14l.06.34,0,.49,0,.13,0,.12,0,.11-.06.1-.07.08-.18.12-1.55.76-.42.33-.17.18-.09.17v.71l0,.33,0,.11,0,.11,0,.11-.06.09-.07.08-.26.14-2.15.83h-.74l-.11,0-.1.07-.35.37-.32.7-.12.19-.21.23,0,.07v.08l0,.2v.11l0,.1-.09.08-.15.07-1.79.28-1.79.61L5,61.11l-.23.19-.13.07-.19.06-1.67.17-1.55.56H1.11l-.34.16L0,63l10.64.06,10.21.05,9.17,0,.14-.06.38-.33.16,0h.15l4.32.17.12.24.06.06.12,0c3.42,0,6.84.07,10.26.1l11.08.11,10,.1,11,.11,10.1.1,10.84.11,10.46.1,10.46.1,10.84.1,3.15,0L133.6,64l-.09-.17-.07-.19v-.3l.55.85h.81l0,0L134.64,63l.23-2.24.09-.22.19,0,.21.13.12.13.1.24.38,1.54.09.16.21.27.06.17v.25l-.06.23,0,.25.09.29h.48l-.19-.9Zm.41,5.17-.29.19.12.24,0,0h.59l-.09-.57Zm12-32.15h-.11l-.07.13-.42.52-.34.5-.12.25-.23.73-.12.17-.09.23-.15.14-.2.07-.22,0-.05.08.1.19.25.34-.16.08-.18,0-.19,0-.19,0v.17l.57,0,.49-.44.41-.66,1.19-2.58Zm-9.72,16.57-.09.47-.16.42-.32.23H137v.13l.58,0,.29-.32.09-.55v-.73h-.12Z"/><polygon class="cls-2" points="130.94 62.96 128.88 59.53 124.89 59.28 127.51 56.27 126.51 52.4 130.19 53.96 133.56 51.81 133.21 55.79 136.3 58.33 132.4 59.24 130.94 62.96"/></g></g></svg>