<svg xmlns="http://www.w3.org/2000/svg" viewBox="0 0 100.67 78.3"><defs><style>.cls-1{fill:#ffcb0d;}</style></defs><title>partly-cloudy-day-yellow</title><g id="Layer_2" data-name="Layer 2"><g id="Layer_1-2" data-name="Layer 1"><g id="Layer_2-2" data-name="Layer 2"><g id="Objects"><path class="cls-1" d="M98.21,24.48H90.8a17.22,17.22,0,0,0-1.06-4l6.37-3.68a2.45,2.45,0,0,0-2.45-4.24l-6.38,3.68a17.33,17.33,0,0,0-2.92-2.92L88,7A2.46,2.46,0,0,0,83.8,4.5l-3.68,6.38a17.06,17.06,0,0,0-4-1.06V2.45a2.45,2.45,0,0,0-4.9,0V9.82a17.13,17.13,0,0,0-4,1.06L63.56,4.5A2.46,2.46,0,1,0,59.32,7L63,13.38a11.32,11.32,0,0,0-1.09,1,27.71,27.71,0,0,1,9.88,20,24.25,24.25,0,0,1,13.36,5.5,17.26,17.26,0,0,0,2.13-2.22l6.38,3.69a2.41,2.41,0,0,0,1.22.33,2.45,2.45,0,0,0,1.23-4.57l-6.38-3.68a17,17,0,0,0,1.06-4h7.41a2.45,2.45,0,1,0,0-4.9h0Z"/><path class="cls-1" d="M69.67,38.93a17.91,17.91,0,0,0-2.85.22,22.2,22.2,0,0,0,.31-3.63,23.08,23.08,0,0,0-46.14-1A21.9,21.9,0,0,0,22.13,78.3H69.67a19.69,19.69,0,1,0,0-39.39Z"/></g></g></g></g></svg>