<svg xmlns="http://www.w3.org/2000/svg" viewBox="0 0 99.56 78.56"><defs><style>.cls-1{fill:#ffcb0d;}</style></defs><title>partly-cloudy-night-yellow</title><g id="Layer_2" data-name="Layer 2"><g id="Layer_1-2" data-name="Layer 1"><g id="Layer_2-2" data-name="Layer 2"><g id="Objects"><path class="cls-1" d="M99,16.25l-1.15-.16A2.28,2.28,0,0,1,96.37,15l-.52-1c-.26-.52-.68-.52-.93,0l-.52,1a2.28,2.28,0,0,1-1.51,1.1l-1.15.16c-.58.09-.7.48-.29.9l.82.84a2.26,2.26,0,0,1,.58,1.78l-.2,1.14c-.1.58.24.82.76.55l1-.54a2.24,2.24,0,0,1,1.87,0l1,.54c.52.27.86,0,.76-.55l-.2-1.14A2.26,2.26,0,0,1,98.49,18l.83-.81C99.74,16.74,99.61,16.34,99,16.25Z"/><path class="cls-1" d="M94.42,26.54A15.71,15.71,0,0,1,80.8,3a2,2,0,0,0-1.73-3A19.55,19.55,0,0,0,62.39,9.25a29.67,29.67,0,0,1,13.18,22.8,26,26,0,0,1,12.67,5c.23-.12.47-.21.7-.34a19.71,19.71,0,0,0,7.2-7.23,2,2,0,0,0-1.7-3Z"/><path class="cls-1" d="M72.69,37.47a18.45,18.45,0,0,0-3,.23A23.12,23.12,0,0,0,70,33.92a24.06,24.06,0,0,0-48.1-1,22.83,22.83,0,0,0,1.19,45.64H72.69a20.53,20.53,0,0,0,0-41.06Z"/></g></g></g></g></svg>