<svg xmlns="http://www.w3.org/2000/svg" viewBox="0 0 95.95 94.13"><defs><style>.cls-1{fill:#ffcb0d;}</style></defs><title>rain-yellow</title><g id="Layer_2" data-name="Layer 2"><g id="Layer_1-2" data-name="Layer 1"><g id="Layer_2-2" data-name="Layer 2"><g id="Objects"><path class="cls-1" d="M22.28,75a3.36,3.36,0,0,0-4.59,1.22h0L10.22,89.08a3.37,3.37,0,0,0,1.23,4.6,3.3,3.3,0,0,0,1.68.45A3.36,3.36,0,0,0,16,92.45l7.41-12.83A3.37,3.37,0,0,0,22.28,75Z"/><path class="cls-1" d="M42.87,75a3.36,3.36,0,0,0-4.59,1.23h0L30.85,89.08a3.36,3.36,0,0,0,1.22,4.59h0a3.3,3.3,0,0,0,1.68.45,3.36,3.36,0,0,0,2.92-1.68L44.1,79.62A3.37,3.37,0,0,0,42.87,75Z"/><path class="cls-1" d="M74.84,28.28a19.18,19.18,0,0,0-3.06.24,23.78,23.78,0,0,0,.34-3.9,24.78,24.78,0,0,0-49.53-1,23.51,23.51,0,0,0,1.22,47h51a21.14,21.14,0,0,0,0-42.28ZM39.39,52,32,64.82a3.37,3.37,0,0,1-5.83-3.37l7.41-12.83A3.37,3.37,0,0,1,39.39,52ZM60,52,52.62,64.82a3.37,3.37,0,0,1-5.83-3.37L54.2,48.62A3.37,3.37,0,0,1,60,52Zm20.64,0L73.28,64.82a3.37,3.37,0,0,1-5.83-3.37l7.41-12.83A3.37,3.37,0,0,1,80.69,52Z"/><path class="cls-1" d="M63.5,75a3.36,3.36,0,0,0-4.59,1.22h0L51.49,89.08a3.36,3.36,0,0,0,1.22,4.59h0a3.3,3.3,0,0,0,1.68.45,3.36,3.36,0,0,0,2.88-1.68l7.46-12.83A3.37,3.37,0,0,0,63.5,75Z"/></g></g></g></g></svg>