<svg xmlns="http://www.w3.org/2000/svg" viewBox="0 0 96.44 87.23"><defs><style>.cls-1{fill:#ffcb0d;}</style></defs><title>sleet-yellow</title><g id="Layer_2" data-name="Layer 2"><g id="Layer_1-2" data-name="Layer 1"><g id="Layer_2-2" data-name="Layer 2"><g id="Objects"><path class="cls-1" d="M74.77,28.59a19.24,19.24,0,0,0-3.07.24A23.84,23.84,0,0,0,72,24.92a24.85,24.85,0,0,0-49.68-1.06,23.55,23.55,0,0,0-16.56,39H17.59a8.07,8.07,0,0,1,6-13.51H74.77a8.11,8.11,0,1,1,0,16.22H61.85A8,8,0,0,1,64,71H74.77a21.21,21.21,0,0,0,.92-42.41h-.92Z"/><path class="cls-1" d="M74.77,60.19a2.7,2.7,0,1,0,0-5.41H23.59a2.7,2.7,0,0,0,0,5.41Z"/><path class="cls-1" d="M58.55,71a2.7,2.7,0,0,0-2.7-2.7H4.67a2.71,2.71,0,0,0,0,5.41H55.85a2.7,2.7,0,0,0,2.7-2.7Z"/><path class="cls-1" d="M64,81.82H12.78a2.7,2.7,0,0,0,0,5.41H64a2.7,2.7,0,1,0,0-5.41Z"/></g></g></g></g></svg>