<svg xmlns="http://www.w3.org/2000/svg" viewBox="0 0 98.76 100.4"><defs><style>.cls-1{fill:#ffcb0d;}</style></defs><title>thunderstorms-day-yellow</title><g id="Layer_2" data-name="Layer 2"><g id="Layer_1-2" data-name="Layer 1"><g id="Layer_2-2" data-name="Layer 2"><g id="Objects"><path class="cls-1" d="M96.38,24.1H89.13a16.93,16.93,0,0,0-1-3.93l6.27-3.62A2.42,2.42,0,1,0,92,12.37L85.67,16a17.13,17.13,0,0,0-2.87-2.87l3.62-6.28a2.41,2.41,0,0,0-4.08-2.57l-.09.16-3.62,6.28a16.84,16.84,0,0,0-3.93-1V2.41a2.41,2.41,0,0,0-4.82,0V9.67a17,17,0,0,0-3.93,1L62.32,4.44a2.41,2.41,0,1,0-4.18,2.41l3.63,6.28a10,10,0,0,0-1.07,1,27.28,27.28,0,0,1,9.72,19.71,23.87,23.87,0,0,1,13.15,5.41A17,17,0,0,0,85.67,37L92,40.65a2.41,2.41,0,1,0,2.41-4.18l-6.28-3.62a16.81,16.81,0,0,0,1-3.93h7.26a2.41,2.41,0,0,0,0-4.82h0Z"/><path class="cls-1" d="M68.33,38.32a17.49,17.49,0,0,0-2.8.22,21.87,21.87,0,0,0,.3-3.54,22.72,22.72,0,0,0-45.41-1,21.56,21.56,0,0,0,1.12,43.09h3.82a7.44,7.44,0,0,1,.37-2.68l6.76-19.53a9.23,9.23,0,0,1,8.47-6h9.13a6.44,6.44,0,0,1,5.75,9.89L51.39,66.6h4.48A6.06,6.06,0,0,1,60.59,77l-.11.13h7.85a19.39,19.39,0,1,0,.88-38.77h-.88Z"/><path class="cls-1" d="M55.88,71.54H45.79c-1.59,0-2.24-1.13-1.46-2.51l7.24-12.76c.78-1.38.13-2.51-1.46-2.51H41a4.34,4.34,0,0,0-3.83,2.72L30.4,76a1.93,1.93,0,0,0,1.94,2.73h7.21a1.75,1.75,0,0,1,1.72,2.64L33.49,99.16c-.63,1.45-.3,1.66.74.47L56.86,73.71C57.91,72.52,57.46,71.54,55.88,71.54Z"/></g></g></g></g></svg>