<svg xmlns="http://www.w3.org/2000/svg" viewBox="0 0 90.68 76.1"><defs><style>.cls-1{fill:#ffcb0d;}</style></defs><title>wind</title><g id="Layer_2" data-name="Layer 2"><g id="Layer_1-2" data-name="Layer 1"><path class="cls-1" d="M82.26,38.05a3.84,3.84,0,0,0-3.85-3.83H13.24a5.56,5.56,0,0,1,0-11.12,3.85,3.85,0,0,0,0-7.7,13.24,13.24,0,0,0,0,26.49H78.41A3.84,3.84,0,0,0,82.26,38.05Z"/><path class="cls-1" d="M55.57,26.52H86.11a3.85,3.85,0,0,0,0-7.7H55.57a5.56,5.56,0,0,1,0-11.12,3.85,3.85,0,1,0,0-7.7,13.26,13.26,0,0,0,0,26.52Z"/><path class="cls-1" d="M86.83,49.58H33.21a13.26,13.26,0,0,0,0,26.52,3.85,3.85,0,1,0,0-7.7,5.56,5.56,0,0,1,0-11.12H86.83a3.85,3.85,0,0,0,0-7.7Z"/></g></g></svg>